# xmcd CD database file
#
# Track frame offsets:
#	150
#	19588
#	50810
#	81648
#	105261
#	131460
#	155817
#	174526
#	200266
#	236441
#
# Disc length: 3432 seconds
#
# Revision: 1
# Processed by: cddbd v1.5.1PL0 Copyright (c) Steve Scherf et al.
# Submitted via: CDex 1.50beta9
#
DISCID=7f0d660a
DTITLE=Scott Henderson - Dog Party
DYEAR=1994
DGENRE=Blues
TTITLE0=Hole Diggin'
TTITLE1=Fence Climbin' Blues
TTITLE2=Dog Party
TTITLE3=Same As You
TTITLE4=Milk Bone
TTITLE5=Hell Bent Pup
TTITLE6=Hound Dog
TTITLE7=Dog Walk
TTITLE8=Smelly Ol' Dog Blues
TTITLE9=Too Many Gittars
EXTD=YEAR: 1994
EXTT0=
EXTT1=
EXTT2=
EXTT3=
EXTT4=
EXTT5=
EXTT6=
EXTT7=
EXTT8=
EXTT9=
PLAYORDER=
